<svg width="34" height="43" viewBox="0 0 34 43" fill="none" xmlns="http://www.w3.org/2000/svg">
<path d="M15.62 43C9.3 43 6.14 39.48 6.14 32.44V16.6H1.46C1.06 16.6 0.72 16.48 0.44 16.24C0.2 15.96 0.0800001 15.62 0.0800001 15.22V13.18C0.0800001 12.78 0.2 12.46 0.44 12.22C0.72 11.94 1.06 11.8 1.46 11.8H6.14V1.78C6.14 1.38 6.26 1.06 6.5 0.819999C6.78 0.539998 7.12 0.399998 7.52 0.399998H10.34C10.74 0.399998 11.06 0.539998 11.3 0.819999C11.58 1.06 11.72 1.38 11.72 1.78V11.8H19.16C19.56 11.8 19.88 11.94 20.12 12.22C20.4 12.46 20.54 12.78 20.54 13.18V15.22C20.54 15.62 20.4 15.96 20.12 16.24C19.88 16.48 19.56 16.6 19.16 16.6H11.72V32.02C11.72 34.02 12.06 35.54 12.74 36.58C13.42 37.58 14.54 38.08 16.1 38.08H19.76C20.16 38.08 20.48 38.22 20.72 38.5C21 38.74 21.14 39.06 21.14 39.46V41.62C21.14 42.02 21 42.36 20.72 42.64C20.48 42.88 20.16 43 19.76 43H15.62ZM27.8375 43C27.4375 43 27.0975 42.88 26.8175 42.64C26.5775 42.36 26.4575 42.02 26.4575 41.62V37.3C26.4575 36.9 26.5775 36.58 26.8175 36.34C27.0975 36.06 27.4375 35.92 27.8375 35.92H32.1575C32.5575 35.92 32.8975 36.06 33.1775 36.34C33.4575 36.58 33.5975 36.9 33.5975 37.3V41.62C33.5975 42.02 33.4575 42.36 33.1775 42.64C32.8975 42.88 32.5575 43 32.1575 43H27.8375Z" fill="#F25272"/>
</svg>
